# xmcd
#
# Track frame offsets: 
#        150
#        5024
#        20394
#        37707
#        51310
#        66155
#        80740
#        98043
#        113133
#        130353
#        144456
#        167426
#        182107
#        200575
#        220369
#        234587
#
# Disc length: 3375 seconds
#
# Revision: 0
# Processed by: cddbd v1.5PL3 Copyright (c) Steve Scherf et al.
# Submitted via: ExactAudioCopy v0.95a4
#
DISCID=de0d2d10
DTITLE=The Black Keys - 2004-01-18 Wedgewood Rooms, Portsmouth, UK
DYEAR=2004
DGENRE=
TTITLE0=intro
TTITLE1=Hard Row
TTITLE2=Thickfreakness
TTITLE3=Busted
TTITLE4=Yearnin'
TTITLE5=Them Eyes
TTITLE6=The Breaks
TTITLE7=Set You Free
TTITLE8=Do The Rump
TTITLE9=She Said, She Said
TTITLE10=Everywhere I Go
TTITLE11=Have Love Will Travel
TTITLE12=No Trust
TTITLE13=No Fun
TTITLE14=I'll Be Your Man
TTITLE15=Heavy Soul
EXTD=
EXTT0=
EXTT1=
EXTT2=
EXTT3=
EXTT4=
EXTT5=
EXTT6=
EXTT7=
EXTT8=
EXTT9=
EXTT10=
EXTT11=
EXTT12=
EXTT13=
EXTT14=
EXTT15=
PLAYORDER=
